<svg width="24" height="25" viewBox="0 0 24 25" fill="none" xmlns="http://www.w3.org/2000/svg">
<path d="M4.3127 12.8317C4.11802 12.8317 3.9602 12.6738 3.9602 12.4792V5.03749C3.9602 4.84281 4.11801 4.68499 4.3127 4.68499H9.79603C9.99071 4.68499 10.1485 4.84281 10.1485 5.03749V12.4792C10.1485 12.6738 9.99071 12.8317 9.79603 12.8317H4.3127ZM4.3127 20.665C4.11802 20.665 3.9602 20.5072 3.9602 20.3125V16.7875C3.9602 16.5928 4.11801 16.435 4.3127 16.435H9.79603C9.99071 16.435 10.1485 16.5928 10.1485 16.7875V20.3125C10.1485 20.5072 9.99071 20.665 9.79603 20.665H4.3127ZM14.1044 20.665C13.9097 20.665 13.7519 20.5072 13.7519 20.3125V12.8708C13.7519 12.6761 13.9097 12.5183 14.1044 12.5183H19.5877C19.7824 12.5183 19.9402 12.6761 19.9402 12.8708V20.3125C19.9402 20.5072 19.7824 20.665 19.5877 20.665H14.1044ZM13.7519 5.03749C13.7519 4.84281 13.9097 4.68499 14.1044 4.68499H19.5877C19.7824 4.68499 19.9402 4.84281 19.9402 5.03749V8.56249C19.9402 8.75717 19.7824 8.91499 19.5877 8.91499H14.1044C13.9097 8.91499 13.7519 8.75717 13.7519 8.56249V5.03749Z" stroke="#C2CFE0" stroke-width="1.645"/>
</svg>
