<svg width="24" height="25" viewBox="0 0 24 25" fill="none" xmlns="http://www.w3.org/2000/svg">
<path d="M3.13737 4.68499H19.7832C19.8675 4.68499 19.9399 4.75737 19.9399 4.84165V10.7167C19.9399 10.8009 19.8675 10.8733 19.7832 10.8733H3.13737C3.05308 10.8733 2.9807 10.8009 2.9807 10.7167V4.84165C2.9807 4.75737 3.05308 4.68499 3.13737 4.68499ZM3.13737 14.4767H19.7832C19.8675 14.4767 19.9399 14.549 19.9399 14.6333V20.5083C19.9399 20.5926 19.8675 20.665 19.7832 20.665H3.13737C3.05308 20.665 2.9807 20.5926 2.9807 20.5083V14.6333C2.9807 14.549 3.05308 14.4767 3.13737 14.4767Z" stroke="#C2CFE0" stroke-width="1.645"/>
</svg>
