<svg width="24" height="25" viewBox="0 0 24 25" fill="none" xmlns="http://www.w3.org/2000/svg">
<path d="M8.20298 8.10559C8.20298 6.03523 9.87956 4.35865 11.9499 4.35865C14.0203 4.35865 15.6969 6.03523 15.6969 8.10559C15.6969 10.176 14.0203 11.8525 11.9499 11.8525C9.87956 11.8525 8.20298 10.176 8.20298 8.10559ZM3.63354 18.3868C3.63354 17.9293 3.85622 17.4676 4.36791 16.9953C4.88518 16.5179 5.64102 16.0873 6.54255 15.7261C8.34694 15.0033 10.5277 14.6399 11.9499 14.6399C13.3722 14.6399 15.5529 15.0033 17.3573 15.7261C18.2588 16.0873 19.0147 16.5179 19.5319 16.9953C20.0436 17.4676 20.2663 17.9293 20.2663 18.3868V20.9914H3.63354V18.3868Z" stroke="#C2CFE0" stroke-width="1.645"/>
</svg>
