<svg width="24" height="24" viewBox="0 0 24 24" fill="none" xmlns="http://www.w3.org/2000/svg">
<path d="M15.1771 13.7083H14.4035L14.1294 13.444C15.089 12.3277 15.6667 10.8785 15.6667 9.30208C15.6667 5.78688 12.8173 2.9375 9.30208 2.9375C5.78688 2.9375 2.9375 5.78688 2.9375 9.30208C2.9375 12.8173 5.78688 15.6667 9.30208 15.6667C10.8785 15.6667 12.3277 15.089 13.444 14.1294L13.7083 14.4035V15.1771L18.6042 20.0631L20.0631 18.6042L15.1771 13.7083V13.7083ZM9.30208 13.7083C6.86396 13.7083 4.89583 11.7402 4.89583 9.30208C4.89583 6.86396 6.86396 4.89583 9.30208 4.89583C11.7402 4.89583 13.7083 6.86396 13.7083 9.30208C13.7083 11.7402 11.7402 13.7083 9.30208 13.7083Z" fill="#C2CFE0"/>
</svg>
