<svg width="24" height="24" viewBox="0 0 24 24" fill="none" xmlns="http://www.w3.org/2000/svg">
<path d="M6.07503 9.79166C4.99795 9.79166 4.1167 10.6729 4.1167 11.75C4.1167 12.8271 4.99795 13.7083 6.07503 13.7083C7.15212 13.7083 8.03337 12.8271 8.03337 11.75C8.03337 10.6729 7.15212 9.79166 6.07503 9.79166ZM17.825 9.79166C16.7479 9.79166 15.8667 10.6729 15.8667 11.75C15.8667 12.8271 16.7479 13.7083 17.825 13.7083C18.9021 13.7083 19.7834 12.8271 19.7834 11.75C19.7834 10.6729 18.9021 9.79166 17.825 9.79166ZM11.95 9.79166C10.8729 9.79166 9.9917 10.6729 9.9917 11.75C9.9917 12.8271 10.8729 13.7083 11.95 13.7083C13.0271 13.7083 13.9084 12.8271 13.9084 11.75C13.9084 10.6729 13.0271 9.79166 11.95 9.79166Z" fill="#C2CFE0"/>
</svg>
