<svg width="528" height="679" viewBox="0 0 528 679" fill="none" xmlns="http://www.w3.org/2000/svg">
<path opacity="0.36" fill-rule="evenodd" clip-rule="evenodd" d="M400.739 550.565C364.344 587.161 318.548 614.398 267.276 628.348L272.183 623.442L213.925 565.184L209.218 560.477H202.561H136.268V534.362V508.247H253.931L286.94 542.906C287.213 558.203 299.698 570.519 315.06 570.519C330.592 570.519 343.184 557.928 343.184 542.395C343.184 526.863 330.592 514.271 315.06 514.271C311.743 514.271 308.561 514.845 305.606 515.899L272.456 481.092L267.706 476.105H260.819H120.197H104.126V492.176V518.291H64.9377C59.8555 511.004 51.4112 506.236 41.8533 506.236C26.3207 506.236 13.7291 518.828 13.7291 534.36C13.7291 549.893 26.3207 562.485 41.8533 562.485C51.4099 562.485 59.8531 557.718 64.9355 550.433H104.126V576.548V592.619H120.197H195.905L238.029 634.744C221.918 637.427 205.372 638.823 188.5 638.823C44.5434 638.823 -75.6775 537.198 -104.335 401.776H-48.5482V451.997V468.068H-32.4772H61.94H78.011V451.997V283.252V276.963L73.7422 272.344L18.0415 212.078L-41.379 147.787C-36.0065 141.352 -30.369 135.146 -24.483 129.185L64.4103 222.03L64.5309 222.156L64.6542 222.279L104.149 261.774V439.942V455.991H120.198H265.372C270.531 462.145 278.275 466.058 286.934 466.058C302.467 466.058 315.058 453.467 315.058 437.934C315.058 422.401 302.467 409.81 286.934 409.81C276.515 409.81 267.42 415.475 262.56 423.893H136.247V255.126V248.478L131.546 243.777L99.4081 211.639L146.15 170.239L170.424 192.402C170.422 192.552 170.421 192.703 170.421 192.853C170.421 208.386 183.013 220.978 198.545 220.978C214.078 220.978 226.669 208.386 226.669 192.853C226.669 177.321 214.078 164.729 198.545 164.729C195.34 164.729 192.259 165.265 189.389 166.253L162.362 141.576V41.3029C170.976 40.5578 179.693 40.1775 188.5 40.1775C206.986 40.1775 225.081 41.8534 242.641 45.0615C247.616 56.38 258.925 64.284 272.081 64.284C279.13 64.284 285.648 62.0154 290.946 58.1684C305.577 63.4975 319.675 69.9354 333.139 77.3804V136.603H266.846H250.775V152.674V226.017C243.488 231.099 238.721 239.543 238.721 249.1C238.721 264.633 251.313 277.224 266.845 277.224C282.378 277.224 294.97 264.633 294.97 249.1C294.97 239.543 290.203 231.099 282.917 226.017V168.745H333.139V279.858L297.593 310.201L260.919 341.508H193.502C188.42 334.223 179.976 329.456 170.419 329.456C154.887 329.456 142.295 342.047 142.295 357.58C142.295 373.113 154.887 385.704 170.419 385.704C179.977 385.704 188.421 380.937 193.503 373.65H266.846H272.772L277.28 369.802L307.166 344.29L347.201 384.325V425.881V492.174V499.009L352.124 503.75L400.739 550.565ZM188.5 0C210.613 0 232.233 2.11418 253.167 6.15144C258.474 2.28276 265.011 0 272.081 0C285.258 0 296.582 7.92853 301.544 19.275C433.469 65.8467 528 191.634 528 339.5C528 527.001 376.001 679 188.5 679C0.999329 679 -151 527.001 -151 339.5C-151 151.999 0.999329 0 188.5 0ZM130.264 45.8392C81.2424 55.5057 36.5188 77.1411 -0.735748 107.575L76.9184 188.68L130.264 141.431V45.8392ZM-60.9345 173.983C-92.4561 221.392 -110.822 278.301 -110.822 339.5C-110.822 349.671 -110.315 359.724 -109.325 369.634H-32.4772H-16.4062V385.705V435.927H45.869V289.541L7.45381 247.977L-27.4245 293.959C-26.7881 296.309 -26.4485 298.78 -26.4485 301.331C-26.4485 316.863 -39.0402 329.455 -54.5728 329.455C-70.1054 329.455 -82.6971 316.863 -82.6971 301.331C-82.6971 285.798 -70.1054 273.206 -54.5728 273.206C-53.7418 273.206 -52.9191 273.242 -52.1064 273.313L-14.7039 224.003L-60.9345 173.983ZM422.17 526.58C463.25 475.335 487.823 410.287 487.823 339.5C487.823 298.171 479.446 258.798 464.299 222.986H433.582V307.913C439.723 313.072 443.627 320.808 443.627 329.457C443.627 344.989 431.035 357.581 415.502 357.581C399.97 357.581 387.378 344.989 387.378 329.457C387.378 319.047 393.034 309.958 401.44 305.095V206.915V190.844H417.511H448.358C427.437 154.352 399.05 122.687 365.281 97.9328V152.674V287.269V294.68L359.644 299.492L331.688 323.357L374.636 366.304L379.343 371.011V377.668V409.81H398.12C402.634 400.309 412.318 393.74 423.537 393.74C439.07 393.74 451.661 406.332 451.661 421.864C451.661 437.397 439.07 449.988 423.537 449.988C415.874 449.988 408.926 446.923 403.853 441.952H379.343V485.339L422.17 526.58Z" fill="#D9D9D9"/>
</svg>
