<svg width="1550" height="70" viewBox="0 0 1550 70" fill="none" xmlns="http://www.w3.org/2000/svg">
<line x1="2" y1="33" x2="1548" y2="33" stroke="#2ED3AD" stroke-width="4" stroke-linecap="round"/>
<circle cx="301" cy="35" r="35" fill="#2ED3AD"/>
<path opacity="0.22" d="M318.271 37.4444C318.271 45.6328 311.633 52.2708 303.444 52.2708C295.256 52.2708 288.618 45.6328 288.618 37.4444C288.618 29.256 295.256 22.618 303.444 22.618C311.633 22.618 318.271 29.256 318.271 37.4444Z" fill="white" stroke="white" stroke-width="1.45834"/>
<path d="M314.382 33.5556C314.382 41.744 307.744 48.382 299.556 48.382C291.367 48.382 284.729 41.744 284.729 33.5556C284.729 25.3672 291.367 18.7292 299.556 18.7292C307.744 18.7292 314.382 25.3672 314.382 33.5556Z" stroke="white" stroke-width="1.45834"/>
<path fill-rule="evenodd" clip-rule="evenodd" d="M296.597 38.4457C296.601 38.4506 296.606 38.4555 296.611 38.4604C296.779 38.628 296.995 38.7166 297.215 38.7264C297.462 38.7375 297.712 38.6488 297.9 38.4604C297.906 38.4553 297.911 38.4501 297.916 38.4449L306.049 30.3113C306.405 29.9553 306.405 29.3782 306.049 29.0223C305.693 28.6663 305.116 28.6663 304.76 29.0223L297.256 36.5267L294.47 33.7413C294.114 33.3854 293.537 33.3854 293.181 33.7413C292.825 34.0973 292.825 34.6744 293.181 35.0303L296.597 38.4457Z" fill="white"/>
<circle cx="770" cy="35" r="35" fill="#2ED3AD"/>
<path opacity="0.22" d="M787.271 37.4444C787.271 45.6328 780.633 52.2708 772.444 52.2708C764.256 52.2708 757.618 45.6328 757.618 37.4444C757.618 29.256 764.256 22.618 772.444 22.618C780.633 22.618 787.271 29.256 787.271 37.4444Z" fill="white" stroke="white" stroke-width="1.45834"/>
<path d="M783.382 33.5556C783.382 41.744 776.744 48.382 768.556 48.382C760.367 48.382 753.729 41.744 753.729 33.5556C753.729 25.3672 760.367 18.7292 768.556 18.7292C776.744 18.7292 783.382 25.3672 783.382 33.5556Z" stroke="white" stroke-width="1.45834"/>
<path fill-rule="evenodd" clip-rule="evenodd" d="M765.597 38.4457C765.601 38.4506 765.606 38.4555 765.611 38.4604C765.779 38.628 765.995 38.7166 766.215 38.7264C766.461 38.7375 766.712 38.6488 766.9 38.4604C766.905 38.4553 766.91 38.4501 766.915 38.4449L775.049 30.3113C775.405 29.9553 775.405 29.3782 775.049 29.0223C774.693 28.6663 774.116 28.6663 773.76 29.0223L766.256 36.5267L763.47 33.7413C763.114 33.3854 762.537 33.3854 762.181 33.7413C761.825 34.0973 761.825 34.6744 762.181 35.0303L765.597 38.4457Z" fill="white"/>
<circle cx="1239" cy="35" r="35" fill="#2ED3AD"/>
<path opacity="0.22" d="M1256.27 37.4444C1256.27 45.6328 1249.63 52.2708 1241.44 52.2708C1233.26 52.2708 1226.62 45.6328 1226.62 37.4444C1226.62 29.256 1233.26 22.618 1241.44 22.618C1249.63 22.618 1256.27 29.256 1256.27 37.4444Z" fill="white" stroke="white" stroke-width="1.45834"/>
<path d="M1252.38 33.5556C1252.38 41.744 1245.74 48.382 1237.56 48.382C1229.37 48.382 1222.73 41.744 1222.73 33.5556C1222.73 25.3672 1229.37 18.7292 1237.56 18.7292C1245.74 18.7292 1252.38 25.3672 1252.38 33.5556Z" stroke="white" stroke-width="1.45834"/>
<path fill-rule="evenodd" clip-rule="evenodd" d="M1234.6 38.4457C1234.6 38.4506 1234.61 38.4555 1234.61 38.4604C1234.78 38.628 1235 38.7166 1235.21 38.7264C1235.46 38.7375 1235.71 38.6488 1235.9 38.4604C1235.91 38.4553 1235.91 38.4501 1235.92 38.4449L1244.05 30.3113C1244.41 29.9553 1244.41 29.3782 1244.05 29.0223C1243.69 28.6663 1243.12 28.6663 1242.76 29.0223L1235.26 36.5267L1232.47 33.7413C1232.11 33.3854 1231.54 33.3854 1231.18 33.7413C1230.83 34.0973 1230.83 34.6744 1231.18 35.0303L1234.6 38.4457Z" fill="white"/>
</svg>
