<svg width="52" height="483" viewBox="0 0 52 483" fill="none" xmlns="http://www.w3.org/2000/svg">
<line x1="25.4052" y1="1.40516" x2="25.4051" y2="481.595" stroke="#2ED3AD" stroke-width="2.81032" stroke-linecap="round"/>
<circle cx="25.5903" cy="72.5903" r="24.5903" fill="#2ED3AD"/>
<path opacity="0.22" d="M37.7242 74.3077C37.7242 80.0607 33.0605 84.7245 27.3075 84.7245C21.5545 84.7245 16.8907 80.0607 16.8907 74.3077C16.8907 68.5547 21.5545 63.891 27.3075 63.891C33.0605 63.891 37.7242 68.5547 37.7242 74.3077Z" fill="white" stroke="white" stroke-width="1.0246"/>
<path d="M34.9923 71.5755C34.9923 77.3286 30.3286 81.9923 24.5755 81.9923C18.8225 81.9923 14.1588 77.3286 14.1588 71.5755C14.1588 65.8225 18.8225 61.1588 24.5755 61.1588C30.3286 61.1588 34.9923 65.8225 34.9923 71.5755Z" stroke="white" stroke-width="1.0246"/>
<path fill-rule="evenodd" clip-rule="evenodd" d="M22.4974 75.0121C22.5005 75.0152 22.5036 75.0184 22.5067 75.0215C22.6014 75.1163 22.7186 75.1751 22.8411 75.198C23.0418 75.2357 23.2572 75.1769 23.4125 75.0215C23.4163 75.0177 23.42 75.0139 23.4237 75.0101L29.1377 69.2961C29.3878 69.046 29.3878 68.6405 29.1377 68.3904C28.8876 68.1404 28.4822 68.1404 28.2321 68.3904L22.9596 73.6629L21.0026 71.706C20.7525 71.4559 20.3471 71.4559 20.097 71.706C19.8469 71.9561 19.8469 72.3615 20.097 72.6116L22.4974 75.0121Z" fill="white"/>
<circle cx="24.5903" cy="402.59" r="24.5903" fill="#2ED3AD"/>
<path opacity="0.22" d="M36.7245 404.308C36.7245 410.061 32.0607 414.724 26.3077 414.724C20.5547 414.724 15.891 410.061 15.891 404.308C15.891 398.555 20.5547 393.891 26.3077 393.891C32.0607 393.891 36.7245 398.555 36.7245 404.308Z" fill="white" stroke="white" stroke-width="1.0246"/>
<path d="M33.9923 401.576C33.9923 407.329 29.3286 411.992 23.5755 411.992C17.8225 411.992 13.1588 407.329 13.1588 401.576C13.1588 395.823 17.8225 391.159 23.5755 391.159C29.3286 391.159 33.9923 395.823 33.9923 401.576Z" stroke="white" stroke-width="1.0246"/>
<path fill-rule="evenodd" clip-rule="evenodd" d="M21.4977 405.012C21.5007 405.015 21.5038 405.018 21.5069 405.021C21.6017 405.116 21.7188 405.175 21.8413 405.198C22.0421 405.236 22.2574 405.177 22.4128 405.022C22.4165 405.018 22.4203 405.014 22.4239 405.01L28.1379 399.296C28.388 399.046 28.388 398.641 28.1379 398.39C27.8879 398.14 27.4824 398.14 27.2323 398.39L21.9598 403.663L20.0029 401.706C19.7528 401.456 19.3473 401.456 19.0972 401.706C18.8471 401.956 18.8471 402.362 19.0972 402.612L21.4977 405.012Z" fill="white"/>
<circle cx="26.5903" cy="237.59" r="24.5903" fill="#2ED3AD"/>
<path opacity="0.22" d="M38.7245 239.308C38.7245 245.061 34.0607 249.724 28.3077 249.724C22.5547 249.724 17.891 245.061 17.891 239.308C17.891 233.555 22.5547 228.891 28.3077 228.891C34.0607 228.891 38.7245 233.555 38.7245 239.308Z" fill="white" stroke="white" stroke-width="1.0246"/>
<path d="M35.9923 236.576C35.9923 242.329 31.3286 246.992 25.5755 246.992C19.8225 246.992 15.1588 242.329 15.1588 236.576C15.1588 230.823 19.8225 226.159 25.5755 226.159C31.3286 226.159 35.9923 230.823 35.9923 236.576Z" stroke="white" stroke-width="1.0246"/>
<path fill-rule="evenodd" clip-rule="evenodd" d="M23.4977 240.012C23.5007 240.015 23.5038 240.018 23.5069 240.021C23.6017 240.116 23.7188 240.175 23.8413 240.198C24.0421 240.236 24.2574 240.177 24.4128 240.022C24.4165 240.018 24.4203 240.014 24.4239 240.01L30.1379 234.296C30.388 234.046 30.388 233.641 30.1379 233.39C29.8879 233.14 29.4824 233.14 29.2323 233.39L23.9598 238.663L22.0029 236.706C21.7528 236.456 21.3473 236.456 21.0972 236.706C20.8471 236.956 20.8471 237.362 21.0972 237.612L23.4977 240.012Z" fill="white"/>
</svg>
