<svg width="189" height="48" viewBox="0 0 189 48" fill="none" xmlns="http://www.w3.org/2000/svg">
<circle cx="24" cy="24" r="22.5799" stroke="#0029A0" stroke-width="2.84024"/>
<path d="M35.3609 5.11243V10.7929M23.8579 25.2781H29.5384L32.4496 22.7929M35.3609 10.7929V20.3077L32.4496 22.7929M35.3609 10.7929H29.5384V16.6154M32.4496 22.7929L36.355 26.6982V30.1065M40.1893 38.4852L36.355 34.7929V30.1065M36.355 30.1065H39.3372" stroke="#0029A0" stroke-width="2.27219"/>
<path d="M43.7396 14.6273H40.1893V21.8699" stroke="#0029A0" stroke-width="2.27219"/>
<path d="M6.39043 10.6509L11.1155 15.7633M2.69812 27.2663H8.37859V31.9527H15.0531V20.0237L11.1155 15.7633M11.1155 15.7633L7.66853 20.3077" stroke="#0029A0" stroke-width="2.27219"/>
<path d="M29.1124 44.8757L24.994 40.7574H19.1715V37.7751M31.9526 37.7751L29.1124 34.7929H19.1715V37.7751M19.1715 37.7751H14.7692" stroke="#0029A0" stroke-width="2.27219"/>
<path d="M21.0177 2.55618V10.5088M21.0177 10.5088L16.0473 14.9112M21.0177 10.5088L24.284 13.4911M16.0473 14.9112L19.1715 18.0355V31.1006H29.8224M16.0473 14.9112L9.65674 8.23666" stroke="#0029A0" stroke-width="2.27219"/>
<circle cx="30.9586" cy="2.55625" r="2.27219" fill="#0029A0"/>
<circle cx="29.5385" cy="17.6095" r="1.98817" fill="#0029A0"/>
<circle cx="40.0472" cy="23.2899" r="1.98817" fill="#0029A0"/>
<circle cx="40.6152" cy="29.8225" r="1.98817" fill="#0029A0"/>
<circle cx="30.9585" cy="30.9586" r="1.98817" fill="#0029A0"/>
<circle cx="32.9468" cy="38.3432" r="1.98817" fill="#0029A0"/>
<circle cx="22.7218" cy="25.2781" r="1.98817" fill="#0029A0"/>
<circle cx="6.81641" cy="21.3018" r="1.98817" fill="#0029A0"/>
<circle cx="24.7101" cy="13.6332" r="1.98817" fill="#0029A0"/>
<circle cx="13.6332" cy="37.7752" r="1.98817" fill="#0029A0"/>
<path d="M68.3362 33.2401C67.1802 33.2401 66.1398 33.0356 65.215 32.6265C64.308 32.1997 63.5877 31.6306 63.0541 30.9192C62.5206 30.19 62.236 29.3808 62.2005 28.4916H65.3484C65.4017 29.114 65.6952 29.6387 66.2287 30.0655C66.7801 30.4746 67.4648 30.6791 68.2829 30.6791C69.1365 30.6791 69.7946 30.519 70.257 30.1989C70.7372 29.861 70.9773 29.4342 70.9773 28.9184C70.9773 28.3671 70.7105 27.958 70.1769 27.6912C69.6612 27.4245 68.8342 27.131 67.696 26.8109C66.5933 26.5086 65.6952 26.2151 65.0016 25.9305C64.308 25.646 63.7033 25.2103 63.1875 24.6234C62.6896 24.0365 62.4406 23.2628 62.4406 22.3025C62.4406 21.5199 62.6718 20.8085 63.1342 20.1683C63.5966 19.5102 64.2546 18.9945 65.1083 18.621C65.9797 18.2475 66.9757 18.0608 68.0961 18.0608C69.7679 18.0608 71.1106 18.4876 72.1244 19.3413C73.1559 20.1772 73.7072 21.3243 73.7784 22.7826H70.7372C70.6838 22.1246 70.417 21.6 69.9369 21.2087C69.4567 20.8174 68.8075 20.6218 67.9894 20.6218C67.1891 20.6218 66.5755 20.773 66.1487 21.0753C65.7219 21.3776 65.5084 21.7778 65.5084 22.2758C65.5084 22.667 65.6507 22.9961 65.9353 23.2628C66.2198 23.5296 66.5666 23.743 66.9757 23.9031C67.3847 24.0454 67.9894 24.2321 68.7897 24.4633C69.8568 24.7479 70.7283 25.0413 71.4041 25.3437C72.0977 25.6282 72.6935 26.055 73.1915 26.6242C73.6894 27.1933 73.9473 27.9491 73.9651 28.8917C73.9651 29.7276 73.7339 30.4746 73.2715 31.1326C72.8091 31.7906 72.1511 32.3064 71.2974 32.6799C70.4615 33.0534 69.4744 33.2401 68.3362 33.2401ZM90.4831 18.3009L81.4662 39.9094H78.3183L81.3061 32.7599L75.5172 18.3009H78.9052L83.0401 29.5053L87.3352 18.3009H90.4831ZM100.194 18.0608C101.35 18.0608 102.382 18.3009 103.289 18.7811C104.214 19.2613 104.934 19.9726 105.45 20.9152C105.966 21.8578 106.223 22.9961 106.223 24.3299V33H103.209V24.7834C103.209 23.4674 102.88 22.4625 102.222 21.7689C101.564 21.0575 100.666 20.7018 99.5275 20.7018C98.3892 20.7018 97.4822 21.0575 96.8064 21.7689C96.1484 22.4625 95.8193 23.4674 95.8193 24.7834V33H92.7781V18.3009H95.8193V19.9815C96.3173 19.3769 96.9487 18.9056 97.7134 18.5676C98.4959 18.2297 99.3229 18.0608 100.194 18.0608ZM113.651 20.7819V28.9184C113.651 29.4697 113.775 29.8699 114.024 30.1189C114.291 30.3501 114.736 30.4657 115.358 30.4657H117.225V33H114.825C113.455 33 112.406 32.6799 111.677 32.0396C110.947 31.3994 110.583 30.359 110.583 28.9184V20.7819H108.849V18.3009H110.583V14.6461H113.651V18.3009H117.225V20.7819H113.651ZM119.015 25.5837C119.015 24.1076 119.317 22.8004 119.922 21.6622C120.544 20.524 121.38 19.6436 122.429 19.0212C123.496 18.3809 124.67 18.0608 125.951 18.0608C127.107 18.0608 128.112 18.292 128.965 18.7544C129.837 19.199 130.53 19.7592 131.046 20.4351V18.3009H134.114V33H131.046V30.8125C130.53 31.5061 129.828 32.0841 128.939 32.5465C128.049 33.0089 127.036 33.2401 125.897 33.2401C124.635 33.2401 123.479 32.92 122.429 32.2797C121.38 31.6217 120.544 30.7147 119.922 29.5586C119.317 28.3848 119.015 27.0599 119.015 25.5837ZM131.046 25.6371C131.046 24.6234 130.833 23.743 130.406 22.9961C129.997 22.2491 129.454 21.68 128.779 21.2887C128.103 20.8975 127.374 20.7018 126.591 20.7018C125.809 20.7018 125.079 20.8975 124.404 21.2887C123.728 21.6622 123.176 22.2224 122.75 22.9694C122.34 23.6986 122.136 24.57 122.136 25.5837C122.136 26.5975 122.34 27.4867 122.75 28.2515C123.176 29.0162 123.728 29.6031 124.404 30.0122C125.097 30.4034 125.826 30.5991 126.591 30.5991C127.374 30.5991 128.103 30.4034 128.779 30.0122C129.454 29.6209 129.997 29.0518 130.406 28.3048C130.833 27.5401 131.046 26.6508 131.046 25.6371ZM144.404 25.5571L149.153 33H145.711L142.537 28.0114L139.549 33H136.374L141.123 25.7705L136.374 18.3009H139.816L142.99 23.2895L145.978 18.3009H149.153L144.404 25.5571ZM152.968 16.3534C152.417 16.3534 151.955 16.1667 151.581 15.7932C151.208 15.4197 151.021 14.9573 151.021 14.406C151.021 13.8547 151.208 13.3923 151.581 13.0188C151.955 12.6453 152.417 12.4586 152.968 12.4586C153.502 12.4586 153.955 12.6453 154.329 13.0188C154.702 13.3923 154.889 13.8547 154.889 14.406C154.889 14.9573 154.702 15.4197 154.329 15.7932C153.955 16.1667 153.502 16.3534 152.968 16.3534ZM154.462 18.3009V33H151.421V18.3009H154.462ZM164.137 30.2789L168.299 18.3009H171.527L165.925 33H162.297L156.721 18.3009H159.976L164.137 30.2789ZM187.298 25.2903C187.298 25.8416 187.262 26.3396 187.191 26.7842H175.96C176.049 27.958 176.485 28.9006 177.267 29.612C178.05 30.3234 179.01 30.6791 180.148 30.6791C181.784 30.6791 182.94 29.9944 183.616 28.6249H186.898C186.453 29.9766 185.644 31.0881 184.47 31.9596C183.314 32.8133 181.873 33.2401 180.148 33.2401C178.743 33.2401 177.48 32.9289 176.36 32.3064C175.257 31.6661 174.386 30.7769 173.746 29.6387C173.123 28.4827 172.812 27.1488 172.812 25.6371C172.812 24.1254 173.114 22.8004 173.719 21.6622C174.341 20.5062 175.204 19.617 176.307 18.9945C177.427 18.372 178.708 18.0608 180.148 18.0608C181.535 18.0608 182.771 18.3631 183.856 18.9678C184.941 19.5725 185.786 20.4262 186.391 21.5288C186.995 22.6137 187.298 23.8675 187.298 25.2903ZM184.123 24.3299C184.105 23.2095 183.705 22.3113 182.923 21.6355C182.14 20.9597 181.171 20.6218 180.015 20.6218C178.965 20.6218 178.067 20.9597 177.32 21.6355C176.573 22.2936 176.129 23.1917 175.987 24.3299H184.123Z" fill="#0029A0"/>
</svg>
