<svg width="434" height="110" viewBox="0 0 434 110" fill="none" xmlns="http://www.w3.org/2000/svg">
<circle cx="55" cy="55" r="51.7456" stroke="white" stroke-width="6.50887"/>
<path d="M81.0354 11.7161V24.7338M54.6744 57.9291H67.6922L74.3638 52.2338M81.0354 24.7338V46.5385L74.3638 52.2338M81.0354 24.7338H67.6922V38.077M74.3638 52.2338L83.3135 61.1835V68.9942M92.1005 88.1954L83.3135 79.7338V68.9942M83.3135 68.9942H90.1478" stroke="white" stroke-width="5.2071"/>
<path d="M100.237 33.5208H92.1007V50.1184" stroke="white" stroke-width="5.2071"/>
<path d="M14.6446 24.4082L25.473 36.1242M6.18311 62.4851H19.2009V73.2248H34.4967V45.8875L25.473 36.1242M25.473 36.1242L17.5736 46.5384" stroke="white" stroke-width="5.2071"/>
<path d="M66.7158 102.84L57.2779 93.4023H43.9347V86.568M73.2246 86.568L66.7158 79.7336H43.9347V86.568M43.9347 86.568H33.8459" stroke="white" stroke-width="5.2071"/>
<path d="M48.1655 5.85791V24.0828M48.1655 24.0828L36.775 34.1715M48.1655 24.0828L55.6507 30.9171M36.775 34.1715L43.9347 41.3313V71.2721H68.343M36.775 34.1715L22.13 18.8757" stroke="white" stroke-width="5.2071"/>
<circle cx="70.9468" cy="5.85774" r="5.2071" fill="white"/>
<circle cx="67.6923" cy="40.355" r="4.55621" fill="white"/>
<circle cx="91.775" cy="53.3724" r="4.55621" fill="white"/>
<circle cx="93.0766" cy="68.3428" r="4.55621" fill="white"/>
<circle cx="70.9466" cy="70.9468" r="4.55621" fill="white"/>
<circle cx="75.503" cy="87.8697" r="4.55621" fill="white"/>
<circle cx="52.0707" cy="57.9295" r="4.55621" fill="white"/>
<circle cx="15.6209" cy="48.8167" r="4.55621" fill="white"/>
<circle cx="56.6271" cy="31.2425" r="4.55621" fill="white"/>
<circle cx="31.2429" cy="86.5679" r="4.55621" fill="white"/>
<path d="M156.604 76.717C153.955 76.717 151.57 76.2483 149.451 75.3109C147.373 74.3327 145.722 73.0285 144.499 71.3982C143.276 69.7272 142.624 67.8727 142.543 65.8349H149.757C149.879 67.2614 150.552 68.4637 151.774 69.4419C153.038 70.3793 154.607 70.848 156.482 70.848C158.438 70.848 159.946 70.4812 161.006 69.7476C162.106 68.9732 162.656 67.995 162.656 66.8131C162.656 65.5496 162.045 64.6122 160.822 64.0008C159.64 63.3895 157.745 62.717 155.137 61.9834C152.61 61.2905 150.552 60.618 148.962 59.9659C147.373 59.3138 145.987 58.3153 144.805 56.9703C143.664 55.6253 143.093 53.8524 143.093 51.6515C143.093 49.8582 143.623 48.228 144.683 46.7607C145.742 45.2527 147.25 44.0708 149.207 43.2149C151.204 42.359 153.486 41.931 156.054 41.931C159.885 41.931 162.962 42.9092 165.285 44.8655C167.649 46.7811 168.912 49.4099 169.076 52.752H162.106C161.984 51.244 161.372 50.0416 160.272 49.145C159.172 48.2483 157.684 47.8 155.809 47.8C153.975 47.8 152.569 48.1465 151.591 48.8393C150.613 49.5322 150.124 50.4492 150.124 51.5904C150.124 52.4871 150.45 53.2411 151.102 53.8524C151.754 54.4638 152.549 54.9528 153.486 55.3196C154.423 55.6457 155.809 56.0737 157.643 56.6035C160.089 57.2556 162.086 57.9281 163.634 58.621C165.224 59.2731 166.589 60.2512 167.731 61.5554C168.872 62.8597 169.463 64.5918 169.503 66.7519C169.503 68.6675 168.974 70.3793 167.914 71.8873C166.854 73.3953 165.346 74.5772 163.39 75.4331C161.474 76.289 159.212 76.717 156.604 76.717ZM207.357 42.4813L186.693 92.0008H179.479L186.327 75.6165L173.06 42.4813H180.824L190.3 68.158L200.143 42.4813H207.357ZM229.612 41.931C232.261 41.931 234.625 42.4813 236.704 43.5817C238.823 44.6821 240.474 46.3124 241.656 48.4725C242.838 50.6326 243.429 53.2411 243.429 56.2978V76.1667H236.521V57.3371C236.521 54.3211 235.767 52.0183 234.259 50.4288C232.751 48.7986 230.692 47.9834 228.084 47.9834C225.475 47.9834 223.397 48.7986 221.848 50.4288C220.34 52.0183 219.586 54.3211 219.586 57.3371V76.1667H212.617V42.4813H219.586V46.3328C220.727 44.947 222.174 43.867 223.927 43.0926C225.72 42.3182 227.615 41.931 229.612 41.931ZM260.45 48.1668V66.8131C260.45 68.0765 260.735 68.9936 261.306 69.5641C261.917 70.094 262.936 70.3589 264.362 70.3589H268.642V76.1667H263.14C260.001 76.1667 257.597 75.4331 255.926 73.9659C254.255 72.4986 253.419 70.1144 253.419 66.8131V48.1668H249.445V42.4813H253.419V34.1057H260.45V42.4813H268.642V48.1668H260.45ZM272.742 59.1712C272.742 55.7884 273.435 52.7927 274.821 50.1843C276.247 47.5759 278.163 45.5584 280.567 44.1319C283.013 42.6647 285.703 41.931 288.637 41.931C291.286 41.931 293.589 42.4609 295.546 43.5206C297.543 44.5395 299.132 45.8233 300.314 47.3721V42.4813H307.345V76.1667H300.314V71.1537C299.132 72.7432 297.522 74.0678 295.484 75.1274C293.447 76.1871 291.123 76.717 288.515 76.717C285.621 76.717 282.972 75.9833 280.567 74.5161C278.163 73.0081 276.247 70.9295 274.821 68.2803C273.435 65.5904 272.742 62.554 272.742 59.1712ZM300.314 59.2934C300.314 56.9703 299.825 54.9528 298.847 53.2411C297.909 51.5293 296.666 50.2251 295.118 49.3284C293.569 48.4318 291.898 47.9834 290.105 47.9834C288.311 47.9834 286.64 48.4318 285.091 49.3284C283.543 50.1843 282.279 51.4681 281.301 53.1799C280.364 54.8509 279.895 56.848 279.895 59.1712C279.895 61.4943 280.364 63.5321 281.301 65.2847C282.279 67.0372 283.543 68.3822 285.091 69.3196C286.681 70.2163 288.352 70.6646 290.105 70.6646C291.898 70.6646 293.569 70.2163 295.118 69.3196C296.666 68.423 297.909 67.1187 298.847 65.407C299.825 63.6544 300.314 61.6166 300.314 59.2934ZM330.927 59.11L341.809 76.1667H333.922L326.647 64.7345L319.8 76.1667H312.525L323.407 59.5991L312.525 42.4813H320.411L327.686 53.9135L334.534 42.4813H341.809L330.927 59.11ZM350.552 38.0184C349.289 38.0184 348.229 37.5904 347.373 36.7346C346.518 35.8787 346.09 34.819 346.09 33.5555C346.09 32.2921 346.518 31.2324 347.373 30.3765C348.229 29.5206 349.289 29.0927 350.552 29.0927C351.775 29.0927 352.814 29.5206 353.67 30.3765C354.526 31.2324 354.954 32.2921 354.954 33.5555C354.954 34.819 354.526 35.8787 353.67 36.7346C352.814 37.5904 351.775 38.0184 350.552 38.0184ZM353.976 42.4813V76.1667H347.007V42.4813H353.976ZM376.148 69.931L385.685 42.4813H393.082L380.244 76.1667H371.93L359.152 42.4813H366.611L376.148 69.931ZM429.224 58.4987C429.224 59.7621 429.142 60.9033 428.979 61.9223H403.241C403.445 64.6122 404.444 66.7723 406.237 68.4026C408.03 70.0329 410.231 70.848 412.84 70.848C416.589 70.848 419.238 69.2789 420.787 66.1406H428.307C427.288 69.2381 425.433 71.7854 422.744 73.7825C420.094 75.7388 416.793 76.717 412.84 76.717C409.62 76.717 406.726 76.0037 404.158 74.5772C401.632 73.11 399.634 71.0721 398.167 68.4637C396.741 65.8145 396.027 62.7578 396.027 59.2934C396.027 55.8291 396.72 52.7927 398.106 50.1843C399.533 47.5351 401.509 45.4973 404.036 44.0708C406.604 42.6443 409.538 41.931 412.84 41.931C416.019 41.931 418.851 42.6239 421.337 44.0096C423.824 45.3954 425.76 47.3517 427.145 49.8786C428.531 52.3648 429.224 55.2381 429.224 58.4987ZM421.949 56.2978C421.908 53.7301 420.991 51.6719 419.198 50.1232C417.404 48.5744 415.183 47.8 412.534 47.8C410.129 47.8 408.071 48.5744 406.359 50.1232C404.648 51.6312 403.629 53.6894 403.303 56.2978H421.949Z" fill="white"/>
</svg>
