<svg width="26" height="25" viewBox="0 0 26 25" fill="none" xmlns="http://www.w3.org/2000/svg">
<path d="M1.17554 12.4087C0.242471 12.8983 0.28118 13.6152 1.25941 14.0023L4.15779 15.1491C5.13683 15.5378 6.61828 15.3257 7.44812 14.6781L20.0344 4.75228C20.8618 4.10148 20.9505 4.19745 20.232 4.9668L10.282 15.6168C9.56102 16.3837 9.77392 17.3257 10.7562 17.7055L11.0957 17.8378C12.078 18.2176 13.6788 18.8555 14.6546 19.2523L17.8691 20.5612C18.8457 20.9579 19.8892 20.4902 20.1667 19.4741L25.0659 1.46599C25.3425 0.449865 24.8054 0.0184131 23.8723 0.507123L1.17554 12.4087Z" fill="white"/>
<path d="M9.12959 24.1983C9.07233 24.37 11.1118 21.245 11.1118 21.245C11.6885 20.3644 11.361 19.3136 10.3868 18.9152L8.16265 18.0047C7.18846 17.6063 6.72153 18.0741 7.12475 19.0475C7.12475 19.0475 9.18846 24.0217 9.12959 24.1983Z" fill="white"/>
</svg>
