<svg width="418" height="539" viewBox="0 0 418 539" fill="none" xmlns="http://www.w3.org/2000/svg">
<path fill-rule="evenodd" clip-rule="evenodd" d="M40.92 164.135L83.4574 182.406L83.3378 82.7003L40.8008 64.7762L40.92 164.135Z" fill="#0EAB8A"/>
<path fill-rule="evenodd" clip-rule="evenodd" d="M0.739705 181.523L40.8845 164.244L40.7647 64.3835L0.619886 81.663L0.739705 181.523Z" fill="#24BE9B"/>
<path fill-rule="evenodd" clip-rule="evenodd" d="M0.77388 181.599L43.1232 199.832L83.4019 182.484L41.0498 164.25L0.77388 181.599Z" fill="#9DEBA8"/>
<path fill-rule="evenodd" clip-rule="evenodd" d="M125.353 200.346L167.891 218.617L167.771 118.91L125.234 100.986L125.353 200.346Z" fill="#0EAB8A"/>
<path fill-rule="evenodd" clip-rule="evenodd" d="M85.1727 217.734L125.318 200.455L125.198 100.594L85.0528 117.873L85.1727 217.734Z" fill="#008F71"/>
<path fill-rule="evenodd" clip-rule="evenodd" d="M85.2057 217.809L127.555 236.042L167.834 218.695L125.482 200.46L85.2057 217.809Z" fill="#9DEBA8"/>
<path fill-rule="evenodd" clip-rule="evenodd" d="M187.989 100.169L230.527 118.439L230.408 18.7339L187.87 0.80981L187.989 100.169Z" fill="#008F71"/>
<path fill-rule="evenodd" clip-rule="evenodd" d="M147.811 117.558L187.955 100.278L187.835 0.417217L147.691 17.6968L147.811 117.558Z" fill="#24BE9B"/>
<path fill-rule="evenodd" clip-rule="evenodd" d="M147.846 117.632L190.195 135.865L230.474 118.517L188.122 100.283L147.846 117.632Z" fill="#00E4BB"/>
<path fill-rule="evenodd" clip-rule="evenodd" d="M272.424 136.624L314.962 154.895L314.843 55.1888L272.305 37.2646L272.424 136.624Z" fill="#008F71"/>
<path fill-rule="evenodd" clip-rule="evenodd" d="M232.245 154.013L272.389 136.733L272.27 36.8728L232.125 54.1523L232.245 154.013Z" fill="#24BE9B"/>
<path fill-rule="evenodd" clip-rule="evenodd" d="M232.277 153.843L274.627 172.076L314.906 154.728L272.553 136.494L232.277 153.843Z" fill="#9DEBA8"/>
<path fill-rule="evenodd" clip-rule="evenodd" d="M7.48253 308.36L178.012 234.126L177.856 103.661L7.36057 177.049L7.48253 308.36Z" fill="#24BE9B"/>
<path fill-rule="evenodd" clip-rule="evenodd" d="M7.44179 308.277L140.158 365.551L311.339 291.267L178.625 233.995L7.44179 308.277Z" fill="#00E4BB"/>
<path fill-rule="evenodd" clip-rule="evenodd" d="M215.39 485.318L245.56 472.272L245.416 104.575L214.008 117.818L215.39 485.318Z" fill="#24BE9B"/>
<path fill-rule="evenodd" clip-rule="evenodd" d="M246.129 471.772L340.436 512.089L339.279 421.434L244.97 376.577L246.129 471.772Z" fill="#46A259"/>
<path fill-rule="evenodd" clip-rule="evenodd" d="M323.058 410.152L416.784 450.414L416.72 397.148L323.352 356.536L323.058 410.152Z" fill="#008F71"/>
<path fill-rule="evenodd" clip-rule="evenodd" d="M277.892 276.927L311.944 291.557L313.118 160.419L277.735 145.566L277.892 276.927Z" fill="#008F71"/>
<path fill-rule="evenodd" clip-rule="evenodd" d="M283.793 231.378L306.243 241.022L306.123 141.313L283.673 132.016L283.793 231.378Z" fill="#01A280"/>
<path fill-rule="evenodd" clip-rule="evenodd" d="M265.303 239.569L287.127 248.987L305.86 240.918L284.039 231.497L265.303 239.569Z" fill="#00E4BB"/>
<path fill-rule="evenodd" clip-rule="evenodd" d="M244.964 390.071L289.078 405.916L288.741 124.241L244.621 104.723L244.964 390.071Z" fill="#E1803D"/>
<path fill-rule="evenodd" clip-rule="evenodd" d="M177.928 233.902L214.179 249.475L214.023 119.281L177.773 104.058L177.928 233.902Z" fill="#008F71"/>
<path fill-rule="evenodd" clip-rule="evenodd" d="M208.615 200.8L231.066 210.443L230.946 110.735L208.496 101.438L208.615 200.8Z" fill="#008F71"/>
<path fill-rule="evenodd" clip-rule="evenodd" d="M190.055 208.775L208.569 200.808L208.449 100.945L189.935 108.913L190.055 208.775Z" fill="#24BE9B"/>
<path fill-rule="evenodd" clip-rule="evenodd" d="M215.103 485.171L309.178 525.768L340.422 512.248L246.347 471.652L215.103 485.171Z" fill="#00E4BB"/>
<path fill-rule="evenodd" clip-rule="evenodd" d="M245.015 443.767L339.085 484.36L417.117 450.595L323.049 410L245.015 443.767Z" fill="#00E4BB"/>
<path fill-rule="evenodd" clip-rule="evenodd" d="M189.983 208.746L211.807 218.165L230.54 210.095L208.719 200.675L189.983 208.746Z" fill="#00E4BB"/>
<path fill-rule="evenodd" clip-rule="evenodd" d="M245.057 443.752L323.441 409.856L323.6 356.494L245.183 390.067L245.057 443.752Z" fill="#24BE9B"/>
<path fill-rule="evenodd" clip-rule="evenodd" d="M267.79 462.659L285.223 426.345L268.549 433.212L267.79 462.659Z" fill="#24BE9B"/>
<path fill-rule="evenodd" clip-rule="evenodd" d="M245.006 472.38L339.082 512.98L361.994 503.066L267.918 462.465L245.006 472.38Z" fill="#00E4BB"/>
<path fill-rule="evenodd" clip-rule="evenodd" d="M245.21 472.271L267.791 462.657L268.55 433.212L245.175 443.729L245.21 472.271Z" fill="#24BE9B"/>
<path fill-rule="evenodd" clip-rule="evenodd" d="M222.46 469.295L261.729 452.144L261.911 417.78L222.609 434.606L222.46 469.295Z" fill="white"/>
<path fill-rule="evenodd" clip-rule="evenodd" d="M267.846 462.683L361.573 502.945L378.588 466.954L285.22 426.342L267.846 462.683Z" fill="#008F71"/>
<line x1="232.083" y1="432.747" x2="253.692" y2="451.654" stroke="black" stroke-width="6"/>
<line x1="254.059" y1="428.776" x2="232.451" y2="455.786" stroke="black" stroke-width="6"/>
</svg>
